<mxfile host="app.diagrams.net" agent="Mozilla/5.0 (Windows NT 10.0; Win64; x64) AppleWebKit/537.36 (KHTML, like Gecko) Chrome/139.0.0.0 Safari/537.36" version="28.1.1">
  <diagram name="Page-1" id="MipQ-z4zNH1stUfnN7m8">
    <mxGraphModel dx="854" dy="427" grid="1" gridSize="10" guides="1" tooltips="1" connect="1" arrows="1" fold="1" page="1" pageScale="1" pageWidth="827" pageHeight="1169" math="0" shadow="0">
      <root>
        <mxCell id="0" />
        <mxCell id="1" parent="0" />
        <mxCell id="kAASRupHCh5nSyGOGbmb-1" value="User Opens Editor" style="whiteSpace=wrap;strokeWidth=2;" vertex="1" parent="1">
          <mxGeometry x="313" y="20" width="190" height="54" as="geometry" />
        </mxCell>
        <mxCell id="kAASRupHCh5nSyGOGbmb-2" value="Monaco Editor Interface" style="whiteSpace=wrap;strokeWidth=2;" vertex="1" parent="1">
          <mxGeometry x="291" y="124" width="233" height="54" as="geometry" />
        </mxCell>
        <mxCell id="kAASRupHCh5nSyGOGbmb-3" value="User Action" style="rhombus;strokeWidth=2;whiteSpace=wrap;" vertex="1" parent="1">
          <mxGeometry x="340" y="228" width="137" height="137" as="geometry" />
        </mxCell>
        <mxCell id="kAASRupHCh5nSyGOGbmb-4" value="Monaco Models&#xa;In-Memory Editing" style="whiteSpace=wrap;strokeWidth=2;" vertex="1" parent="1">
          <mxGeometry x="25" y="438" width="191" height="78" as="geometry" />
        </mxCell>
        <mxCell id="kAASRupHCh5nSyGOGbmb-5" value="File Storage System" style="whiteSpace=wrap;strokeWidth=2;" vertex="1" parent="1">
          <mxGeometry x="307" y="941" width="202" height="54" as="geometry" />
        </mxCell>
        <mxCell id="kAASRupHCh5nSyGOGbmb-6" value="Code Execution Engine" style="whiteSpace=wrap;strokeWidth=2;" vertex="1" parent="1">
          <mxGeometry x="891" y="450" width="227" height="54" as="geometry" />
        </mxCell>
        <mxCell id="kAASRupHCh5nSyGOGbmb-7" value="File Management" style="whiteSpace=wrap;strokeWidth=2;" vertex="1" parent="1">
          <mxGeometry x="407" y="450" width="185" height="54" as="geometry" />
        </mxCell>
        <mxCell id="kAASRupHCh5nSyGOGbmb-8" value="Syntax Highlighting&#xa;Auto-completion&#xa;Error Detection" style="whiteSpace=wrap;strokeWidth=2;" vertex="1" parent="1">
          <mxGeometry x="20" y="596" width="202" height="102" as="geometry" />
        </mxCell>
        <mxCell id="kAASRupHCh5nSyGOGbmb-9" value="Storage Type" style="rhombus;strokeWidth=2;whiteSpace=wrap;" vertex="1" parent="1">
          <mxGeometry x="335" y="1057" width="146" height="146" as="geometry" />
        </mxCell>
        <mxCell id="kAASRupHCh5nSyGOGbmb-10" value="IndexedDB/localStorage" style="whiteSpace=wrap;strokeWidth=2;" vertex="1" parent="1">
          <mxGeometry x="35" y="1276" width="235" height="54" as="geometry" />
        </mxCell>
        <mxCell id="kAASRupHCh5nSyGOGbmb-11" value="Server Database" style="whiteSpace=wrap;strokeWidth=2;" vertex="1" parent="1">
          <mxGeometry x="320" y="1276" width="177" height="54" as="geometry" />
        </mxCell>
        <mxCell id="kAASRupHCh5nSyGOGbmb-12" value="GitHub/GitLab API" style="whiteSpace=wrap;strokeWidth=2;" vertex="1" parent="1">
          <mxGeometry x="547" y="1276" width="195" height="54" as="geometry" />
        </mxCell>
        <mxCell id="kAASRupHCh5nSyGOGbmb-13" value="File Tree Structure" style="whiteSpace=wrap;strokeWidth=2;" vertex="1" parent="1">
          <mxGeometry x="401" y="620" width="197" height="54" as="geometry" />
        </mxCell>
        <mxCell id="kAASRupHCh5nSyGOGbmb-14" value="Project Management" style="whiteSpace=wrap;strokeWidth=2;" vertex="1" parent="1">
          <mxGeometry x="395" y="813" width="209" height="54" as="geometry" />
        </mxCell>
        <mxCell id="kAASRupHCh5nSyGOGbmb-15" value="Language Type" style="rhombus;strokeWidth=2;whiteSpace=wrap;" vertex="1" parent="1">
          <mxGeometry x="924" y="566" width="161" height="161" as="geometry" />
        </mxCell>
        <mxCell id="kAASRupHCh5nSyGOGbmb-16" value="Browser Runtime&#xa;Direct Execution" style="whiteSpace=wrap;strokeWidth=2;" vertex="1" parent="1">
          <mxGeometry x="658" y="929" width="183" height="78" as="geometry" />
        </mxCell>
        <mxCell id="kAASRupHCh5nSyGOGbmb-17" value="Pyodide/Skulpt&#xa;WASM Runtime" style="whiteSpace=wrap;strokeWidth=2;" vertex="1" parent="1">
          <mxGeometry x="890" y="929" width="171" height="78" as="geometry" />
        </mxCell>
        <mxCell id="kAASRupHCh5nSyGOGbmb-18" value="Server-side API&#xa;Judge0/Docker" style="whiteSpace=wrap;strokeWidth=2;" vertex="1" parent="1">
          <mxGeometry x="1127" y="801" width="170" height="78" as="geometry" />
        </mxCell>
        <mxCell id="kAASRupHCh5nSyGOGbmb-19" value="Output Console" style="whiteSpace=wrap;strokeWidth=2;" vertex="1" parent="1">
          <mxGeometry x="890" y="1103" width="172" height="54" as="geometry" />
        </mxCell>
        <mxCell id="kAASRupHCh5nSyGOGbmb-20" value="API Response&#xa;Compilation Results" style="whiteSpace=wrap;strokeWidth=2;" vertex="1" parent="1">
          <mxGeometry x="1111" y="929" width="202" height="78" as="geometry" />
        </mxCell>
        <mxCell id="kAASRupHCh5nSyGOGbmb-21" value="Display Results to User" style="whiteSpace=wrap;strokeWidth=2;" vertex="1" parent="1">
          <mxGeometry x="864" y="1276" width="223" height="54" as="geometry" />
        </mxCell>
        <mxCell id="kAASRupHCh5nSyGOGbmb-22" value="" style="curved=1;startArrow=none;endArrow=block;exitX=0.5;exitY=1;entryX=0.5;entryY=0;rounded=0;" edge="1" parent="1" source="kAASRupHCh5nSyGOGbmb-1" target="kAASRupHCh5nSyGOGbmb-2">
          <mxGeometry relative="1" as="geometry">
            <Array as="points" />
          </mxGeometry>
        </mxCell>
        <mxCell id="kAASRupHCh5nSyGOGbmb-23" value="" style="curved=1;startArrow=none;endArrow=block;exitX=0.5;exitY=1;entryX=0.5;entryY=0;rounded=0;" edge="1" parent="1" source="kAASRupHCh5nSyGOGbmb-2" target="kAASRupHCh5nSyGOGbmb-3">
          <mxGeometry relative="1" as="geometry">
            <Array as="points" />
          </mxGeometry>
        </mxCell>
        <mxCell id="kAASRupHCh5nSyGOGbmb-24" value="Edit Code" style="curved=1;startArrow=none;endArrow=block;exitX=0;exitY=0.68;entryX=0.5;entryY=0.01;rounded=0;" edge="1" parent="1" source="kAASRupHCh5nSyGOGbmb-3" target="kAASRupHCh5nSyGOGbmb-4">
          <mxGeometry relative="1" as="geometry">
            <Array as="points">
              <mxPoint x="121" y="402" />
            </Array>
          </mxGeometry>
        </mxCell>
        <mxCell id="kAASRupHCh5nSyGOGbmb-25" value="Save File" style="curved=1;startArrow=none;endArrow=block;exitX=0;exitY=0.95;entryX=0.26;entryY=-0.01;rounded=0;" edge="1" parent="1" source="kAASRupHCh5nSyGOGbmb-3" target="kAASRupHCh5nSyGOGbmb-5">
          <mxGeometry relative="1" as="geometry">
            <Array as="points">
              <mxPoint x="291" y="402" />
              <mxPoint x="291" y="904" />
            </Array>
          </mxGeometry>
        </mxCell>
        <mxCell id="kAASRupHCh5nSyGOGbmb-26" value="Run Code" style="curved=1;startArrow=none;endArrow=block;exitX=1;exitY=0.59;entryX=0.5;entryY=0.01;rounded=0;" edge="1" parent="1" source="kAASRupHCh5nSyGOGbmb-3" target="kAASRupHCh5nSyGOGbmb-6">
          <mxGeometry relative="1" as="geometry">
            <Array as="points">
              <mxPoint x="1004" y="402" />
            </Array>
          </mxGeometry>
        </mxCell>
        <mxCell id="kAASRupHCh5nSyGOGbmb-27" value="Create/Delete Files" style="curved=1;startArrow=none;endArrow=block;exitX=0.93;exitY=1;entryX=0.5;entryY=0.01;rounded=0;" edge="1" parent="1" source="kAASRupHCh5nSyGOGbmb-3" target="kAASRupHCh5nSyGOGbmb-7">
          <mxGeometry relative="1" as="geometry">
            <Array as="points">
              <mxPoint x="500" y="402" />
            </Array>
          </mxGeometry>
        </mxCell>
        <mxCell id="kAASRupHCh5nSyGOGbmb-28" value="" style="curved=1;startArrow=none;endArrow=block;exitX=0.44;exitY=1.01;entryX=0.45;entryY=0;rounded=0;" edge="1" parent="1" source="kAASRupHCh5nSyGOGbmb-4" target="kAASRupHCh5nSyGOGbmb-8">
          <mxGeometry relative="1" as="geometry">
            <Array as="points">
              <mxPoint x="101" y="541" />
            </Array>
          </mxGeometry>
        </mxCell>
        <mxCell id="kAASRupHCh5nSyGOGbmb-29" value="" style="curved=1;startArrow=none;endArrow=block;exitX=0.66;exitY=0;entryX=0.71;entryY=1.01;rounded=0;" edge="1" parent="1" source="kAASRupHCh5nSyGOGbmb-8" target="kAASRupHCh5nSyGOGbmb-4">
          <mxGeometry relative="1" as="geometry">
            <Array as="points">
              <mxPoint x="186" y="541" />
            </Array>
          </mxGeometry>
        </mxCell>
        <mxCell id="kAASRupHCh5nSyGOGbmb-30" value="" style="curved=1;startArrow=none;endArrow=block;exitX=0.5;exitY=0.99;entryX=0.5;entryY=0;rounded=0;" edge="1" parent="1" source="kAASRupHCh5nSyGOGbmb-5" target="kAASRupHCh5nSyGOGbmb-9">
          <mxGeometry relative="1" as="geometry">
            <Array as="points" />
          </mxGeometry>
        </mxCell>
        <mxCell id="kAASRupHCh5nSyGOGbmb-31" value="Browser" style="curved=1;startArrow=none;endArrow=block;exitX=0;exitY=0.71;entryX=0.5;entryY=0;rounded=0;" edge="1" parent="1" source="kAASRupHCh5nSyGOGbmb-9" target="kAASRupHCh5nSyGOGbmb-10">
          <mxGeometry relative="1" as="geometry">
            <Array as="points">
              <mxPoint x="152" y="1239" />
            </Array>
          </mxGeometry>
        </mxCell>
        <mxCell id="kAASRupHCh5nSyGOGbmb-32" value="Cloud" style="curved=1;startArrow=none;endArrow=block;exitX=0.5;exitY=1;entryX=0.5;entryY=0;rounded=0;" edge="1" parent="1" source="kAASRupHCh5nSyGOGbmb-9" target="kAASRupHCh5nSyGOGbmb-11">
          <mxGeometry relative="1" as="geometry">
            <Array as="points" />
          </mxGeometry>
        </mxCell>
        <mxCell id="kAASRupHCh5nSyGOGbmb-33" value="Git" style="curved=1;startArrow=none;endArrow=block;exitX=1;exitY=0.73;entryX=0.5;entryY=0;rounded=0;" edge="1" parent="1" source="kAASRupHCh5nSyGOGbmb-9" target="kAASRupHCh5nSyGOGbmb-12">
          <mxGeometry relative="1" as="geometry">
            <Array as="points">
              <mxPoint x="644" y="1239" />
            </Array>
          </mxGeometry>
        </mxCell>
        <mxCell id="kAASRupHCh5nSyGOGbmb-34" value="" style="curved=1;startArrow=none;endArrow=block;exitX=0.5;exitY=1.01;entryX=0.5;entryY=0;rounded=0;" edge="1" parent="1" source="kAASRupHCh5nSyGOGbmb-7" target="kAASRupHCh5nSyGOGbmb-13">
          <mxGeometry relative="1" as="geometry">
            <Array as="points" />
          </mxGeometry>
        </mxCell>
        <mxCell id="kAASRupHCh5nSyGOGbmb-35" value="" style="curved=1;startArrow=none;endArrow=block;exitX=0.5;exitY=1;entryX=0.5;entryY=-0.01;rounded=0;" edge="1" parent="1" source="kAASRupHCh5nSyGOGbmb-13" target="kAASRupHCh5nSyGOGbmb-14">
          <mxGeometry relative="1" as="geometry">
            <Array as="points" />
          </mxGeometry>
        </mxCell>
        <mxCell id="kAASRupHCh5nSyGOGbmb-36" value="" style="curved=1;startArrow=none;endArrow=block;exitX=0.5;exitY=0.99;entryX=0.69;entryY=-0.01;rounded=0;" edge="1" parent="1" source="kAASRupHCh5nSyGOGbmb-14" target="kAASRupHCh5nSyGOGbmb-5">
          <mxGeometry relative="1" as="geometry">
            <Array as="points">
              <mxPoint x="500" y="904" />
            </Array>
          </mxGeometry>
        </mxCell>
        <mxCell id="kAASRupHCh5nSyGOGbmb-37" value="" style="curved=1;startArrow=none;endArrow=block;exitX=0.5;exitY=1.01;entryX=0.5;entryY=0;rounded=0;" edge="1" parent="1" source="kAASRupHCh5nSyGOGbmb-6" target="kAASRupHCh5nSyGOGbmb-15">
          <mxGeometry relative="1" as="geometry">
            <Array as="points" />
          </mxGeometry>
        </mxCell>
        <mxCell id="kAASRupHCh5nSyGOGbmb-38" value="JavaScript" style="curved=1;startArrow=none;endArrow=block;exitX=0;exitY=0.73;entryX=0.5;entryY=0;rounded=0;" edge="1" parent="1" source="kAASRupHCh5nSyGOGbmb-15" target="kAASRupHCh5nSyGOGbmb-16">
          <mxGeometry relative="1" as="geometry">
            <Array as="points">
              <mxPoint x="749" y="764" />
            </Array>
          </mxGeometry>
        </mxCell>
        <mxCell id="kAASRupHCh5nSyGOGbmb-39" value="Python" style="curved=1;startArrow=none;endArrow=block;exitX=0.38;exitY=1;entryX=0.5;entryY=0;rounded=0;" edge="1" parent="1" source="kAASRupHCh5nSyGOGbmb-15" target="kAASRupHCh5nSyGOGbmb-17">
          <mxGeometry relative="1" as="geometry">
            <Array as="points">
              <mxPoint x="976" y="764" />
            </Array>
          </mxGeometry>
        </mxCell>
        <mxCell id="kAASRupHCh5nSyGOGbmb-40" value="C++/Java/etc" style="curved=1;startArrow=none;endArrow=block;exitX=1;exitY=0.78;entryX=0.5;entryY=0;rounded=0;" edge="1" parent="1" source="kAASRupHCh5nSyGOGbmb-15" target="kAASRupHCh5nSyGOGbmb-18">
          <mxGeometry relative="1" as="geometry">
            <Array as="points">
              <mxPoint x="1213" y="764" />
            </Array>
          </mxGeometry>
        </mxCell>
        <mxCell id="kAASRupHCh5nSyGOGbmb-41" value="" style="curved=1;startArrow=none;endArrow=block;exitX=0.5;exitY=1;entryX=0.14;entryY=-0.01;rounded=0;" edge="1" parent="1" source="kAASRupHCh5nSyGOGbmb-16" target="kAASRupHCh5nSyGOGbmb-19">
          <mxGeometry relative="1" as="geometry">
            <Array as="points">
              <mxPoint x="749" y="1032" />
            </Array>
          </mxGeometry>
        </mxCell>
        <mxCell id="kAASRupHCh5nSyGOGbmb-42" value="" style="curved=1;startArrow=none;endArrow=block;exitX=0.5;exitY=1;entryX=0.5;entryY=-0.01;rounded=0;" edge="1" parent="1" source="kAASRupHCh5nSyGOGbmb-17" target="kAASRupHCh5nSyGOGbmb-19">
          <mxGeometry relative="1" as="geometry">
            <Array as="points" />
          </mxGeometry>
        </mxCell>
        <mxCell id="kAASRupHCh5nSyGOGbmb-43" value="" style="curved=1;startArrow=none;endArrow=block;exitX=0.5;exitY=1;entryX=0.5;entryY=0;rounded=0;" edge="1" parent="1" source="kAASRupHCh5nSyGOGbmb-18" target="kAASRupHCh5nSyGOGbmb-20">
          <mxGeometry relative="1" as="geometry">
            <Array as="points" />
          </mxGeometry>
        </mxCell>
        <mxCell id="kAASRupHCh5nSyGOGbmb-44" value="" style="curved=1;startArrow=none;endArrow=block;exitX=0.5;exitY=1;entryX=0.88;entryY=-0.01;rounded=0;" edge="1" parent="1" source="kAASRupHCh5nSyGOGbmb-20" target="kAASRupHCh5nSyGOGbmb-19">
          <mxGeometry relative="1" as="geometry">
            <Array as="points">
              <mxPoint x="1213" y="1032" />
            </Array>
          </mxGeometry>
        </mxCell>
        <mxCell id="kAASRupHCh5nSyGOGbmb-45" value="" style="curved=1;startArrow=none;endArrow=block;exitX=0.5;exitY=0.99;entryX=0.5;entryY=0;rounded=0;" edge="1" parent="1" source="kAASRupHCh5nSyGOGbmb-19" target="kAASRupHCh5nSyGOGbmb-21">
          <mxGeometry relative="1" as="geometry">
            <Array as="points" />
          </mxGeometry>
        </mxCell>
      </root>
    </mxGraphModel>
  </diagram>
</mxfile>
